<?xml version="1.0" encoding="UTF-8" standalone="no"?>
<svg
   width="1024"
   zoomAndPan="magnify"
   viewBox="0 0 768 767.999994"
   height="1024"
   preserveAspectRatio="xMidYMid meet"
   version="1.0"
   id="svg17"
   sodipodi:docname="StreamGrid.svg"
   inkscape:export-filename="StreamGrid.png"
   inkscape:export-xdpi="25.860001"
   inkscape:export-ydpi="25.860001"
   inkscape:version="1.4 (86a8ad7, 2024-10-11)"
   xmlns:inkscape="http://www.inkscape.org/namespaces/inkscape"
   xmlns:sodipodi="http://sodipodi.sourceforge.net/DTD/sodipodi-0.dtd"
   xmlns="http://www.w3.org/2000/svg"
   xmlns:svg="http://www.w3.org/2000/svg">
  <sodipodi:namedview
     id="namedview17"
     pagecolor="#ffffff"
     bordercolor="#000000"
     borderopacity="0.25"
     inkscape:showpageshadow="2"
     inkscape:pageopacity="0.0"
     inkscape:pagecheckerboard="0"
     inkscape:deskcolor="#d1d1d1"
     inkscape:zoom="1.1396484"
     inkscape:cx="676.96315"
     inkscape:cy="404.07198"
     inkscape:window-width="2560"
     inkscape:window-height="1369"
     inkscape:window-x="-8"
     inkscape:window-y="270"
     inkscape:window-maximized="1"
     inkscape:current-layer="svg17" />
  <defs
     id="defs4">
    <clipPath
       id="f3e5a72d1f">
      <path
         d="M 263 441 L 507 441 L 507 571.683594 L 263 571.683594 Z M 263 441 "
         clip-rule="nonzero"
         id="path1" />
    </clipPath>
    <clipPath
       id="6b803c86ab">
      <path
         d="M 498 319 L 741.476562 319 L 741.476562 450 L 498 450 Z M 498 319 "
         clip-rule="nonzero"
         id="path2" />
    </clipPath>
    <clipPath
       id="0293b808da">
      <path
         d="M 263 197.136719 L 507 197.136719 L 507 328 L 263 328 Z M 263 197.136719 "
         clip-rule="nonzero"
         id="path3" />
    </clipPath>
    <clipPath
       id="f4214c8192">
      <path
         d="M 570.855469 381.695312 L 671.109375 381.695312 L 671.109375 419.394531 L 570.855469 419.394531 Z M 570.855469 381.695312 "
         clip-rule="nonzero"
         id="path4" />
    </clipPath>
  </defs>
  <path
     fill="#000000"
     d="M 386.671875 319.671875 C 385.472656 319.050781 384.054688 319.050781 382.859375 319.671875 L 265.449219 380.730469 C 264.070312 381.449219 263.210938 382.863281 263.210938 384.410156 C 263.210938 385.957031 264.070312 387.375 265.449219 388.089844 L 382.859375 449.144531 C 384.054688 449.769531 385.472656 449.769531 386.671875 449.144531 L 504.089844 388.089844 C 505.457031 387.375 506.316406 385.957031 506.316406 384.410156 C 506.316406 382.863281 505.457031 381.449219 504.089844 380.730469 Z M 384.769531 328.019531 L 493.195312 384.410156 C 493.195312 384.410156 384.769531 440.800781 384.769531 440.800781 C 384.769531 440.800781 276.332031 384.410156 276.332031 384.410156 Z M 384.769531 328.019531 "
     fill-opacity="1"
     fill-rule="evenodd"
     id="path5"
     style="fill:#ffffff;fill-opacity:1" />
  <path
     fill="#000000"
     d="M 504.082031 258.621094 C 502.886719 257.996094 501.46875 257.996094 500.269531 258.621094 L 382.859375 319.675781 C 381.484375 320.394531 380.621094 321.808594 380.621094 323.355469 C 380.621094 324.902344 381.484375 326.320312 382.859375 327.035156 L 500.269531 388.089844 C 501.46875 388.714844 502.886719 388.714844 504.082031 388.089844 L 621.5 327.035156 C 622.867188 326.320312 623.730469 324.902344 623.730469 323.355469 C 623.730469 321.808594 622.867188 320.394531 621.5 319.675781 Z M 502.179688 266.964844 L 610.609375 323.355469 C 610.609375 323.355469 502.179688 379.746094 502.179688 379.746094 C 502.179688 379.746094 393.742188 323.355469 393.742188 323.355469 Z M 502.179688 266.964844 "
     fill-opacity="1"
     fill-rule="evenodd"
     id="path6"
     style="fill:#ffffff;fill-opacity:1" />
  <path
     fill="#000000"
     d="M 504.082031 380.738281 C 502.886719 380.113281 501.46875 380.113281 500.269531 380.738281 L 382.859375 441.792969 C 381.484375 442.511719 380.621094 443.925781 380.621094 445.472656 C 380.621094 447.019531 381.484375 448.4375 382.859375 449.152344 L 500.269531 510.207031 C 501.46875 510.832031 502.886719 510.832031 504.082031 510.207031 L 621.5 449.152344 C 622.867188 448.4375 623.730469 447.019531 623.730469 445.472656 C 623.730469 443.925781 622.867188 442.511719 621.5 441.792969 Z M 502.179688 389.082031 L 610.609375 445.472656 C 610.609375 445.472656 502.179688 501.863281 502.179688 501.863281 C 502.179688 501.863281 393.742188 445.472656 393.742188 445.472656 Z M 502.179688 389.082031 "
     fill-opacity="1"
     fill-rule="evenodd"
     id="path7"
     style="fill:#ffffff;fill-opacity:1" />
  <g
     clip-path="url(#f3e5a72d1f)"
     id="g8"
     style="fill:#ffffff;fill-opacity:1">
    <path
       fill="#000000"
       d="M 386.671875 441.789062 C 385.472656 441.167969 384.054688 441.167969 382.859375 441.789062 L 265.449219 502.847656 C 264.070312 503.566406 263.210938 504.980469 263.210938 506.527344 C 263.210938 508.074219 264.070312 509.492188 265.449219 510.207031 L 382.859375 571.261719 C 384.054688 571.886719 385.472656 571.886719 386.671875 571.261719 L 504.089844 510.207031 C 505.457031 509.492188 506.316406 508.074219 506.316406 506.527344 C 506.316406 504.980469 505.457031 503.566406 504.089844 502.847656 Z M 384.769531 450.136719 L 493.195312 506.527344 C 493.195312 506.527344 384.769531 562.917969 384.769531 562.917969 C 384.769531 562.917969 276.332031 506.527344 276.332031 506.527344 Z M 384.769531 450.136719 "
       fill-opacity="1"
       fill-rule="evenodd"
       id="path8"
       style="fill:#ffffff;fill-opacity:1" />
  </g>
  <path
     fill="#000000"
     d="M 269.25 380.738281 C 268.054688 380.113281 266.636719 380.113281 265.441406 380.738281 L 148.03125 441.792969 C 146.652344 442.511719 145.792969 443.925781 145.792969 445.472656 C 145.792969 447.019531 146.652344 448.4375 148.03125 449.152344 L 265.441406 510.207031 C 266.636719 510.832031 268.054688 510.832031 269.25 510.207031 L 386.667969 449.152344 C 388.039062 448.4375 388.898438 447.019531 388.898438 445.472656 C 388.898438 443.925781 388.039062 442.511719 386.667969 441.792969 Z M 267.347656 389.082031 L 375.777344 445.472656 C 375.777344 445.472656 267.347656 501.863281 267.347656 501.863281 C 267.347656 501.863281 158.914062 445.472656 158.914062 445.472656 Z M 267.347656 389.082031 "
     fill-opacity="1"
     fill-rule="evenodd"
     id="path9"
     style="fill:#ffffff;fill-opacity:1" />
  <path
     fill="#000000"
     d="M 151.839844 319.671875 C 150.644531 319.050781 149.226562 319.050781 148.027344 319.671875 L 30.617188 380.730469 C 29.242188 381.449219 28.382812 382.863281 28.382812 384.410156 C 28.382812 385.957031 29.242188 387.375 30.617188 388.089844 L 148.027344 449.144531 C 149.226562 449.769531 150.644531 449.769531 151.839844 449.144531 L 269.257812 388.089844 C 270.625 387.375 271.488281 385.957031 271.488281 384.410156 C 271.488281 382.863281 270.625 381.449219 269.257812 380.730469 Z M 149.9375 328.019531 L 258.367188 384.410156 C 258.367188 384.410156 149.9375 440.800781 149.9375 440.800781 C 149.9375 440.800781 41.503906 384.410156 41.503906 384.410156 Z M 149.9375 328.019531 "
     fill-opacity="1"
     fill-rule="evenodd"
     id="path10"
     style="fill:#ffffff;fill-opacity:1" />
  <g
     clip-path="url(#6b803c86ab)"
     id="g11"
     style="fill:#ffffff;fill-opacity:1">
    <path
       fill="#000000"
       d="M 621.492188 319.671875 C 620.296875 319.050781 618.878906 319.050781 617.683594 319.671875 L 500.273438 380.730469 C 498.894531 381.449219 498.035156 382.863281 498.035156 384.410156 C 498.035156 385.957031 498.894531 387.375 500.273438 388.089844 L 617.683594 449.144531 C 618.878906 449.769531 620.296875 449.769531 621.492188 449.144531 L 738.910156 388.089844 C 740.28125 387.375 741.140625 385.957031 741.140625 384.410156 C 741.140625 382.863281 740.28125 381.449219 738.910156 380.730469 Z M 619.589844 328.019531 L 728.019531 384.410156 C 728.019531 384.410156 619.589844 440.800781 619.589844 440.800781 C 619.589844 440.800781 511.15625 384.410156 511.15625 384.410156 Z M 619.589844 328.019531 "
       fill-opacity="1"
       fill-rule="evenodd"
       id="path11"
       style="fill:#ffffff;fill-opacity:1" />
  </g>
  <g
     clip-path="url(#0293b808da)"
     id="g12"
     style="fill:#ffffff;fill-opacity:1">
    <path
       fill="#000000"
       d="M 386.671875 197.554688 C 385.472656 196.933594 384.054688 196.933594 382.859375 197.554688 L 265.449219 258.613281 C 264.070312 259.332031 263.210938 260.746094 263.210938 262.292969 C 263.210938 263.839844 264.070312 265.257812 265.449219 265.972656 L 382.859375 327.027344 C 384.054688 327.652344 385.472656 327.652344 386.671875 327.027344 L 504.089844 265.972656 C 505.457031 265.257812 506.316406 263.839844 506.316406 262.292969 C 506.316406 260.746094 505.457031 259.332031 504.089844 258.613281 Z M 384.769531 205.902344 L 493.195312 262.292969 C 493.195312 262.292969 384.769531 318.683594 384.769531 318.683594 C 384.769531 318.683594 276.332031 262.292969 276.332031 262.292969 Z M 384.769531 205.902344 "
       fill-opacity="1"
       fill-rule="evenodd"
       id="path12"
       style="fill:#ffffff;fill-opacity:1" />
  </g>
  <path
     fill="#000000"
     d="M 269.25 258.621094 C 268.054688 257.996094 266.636719 257.996094 265.441406 258.621094 L 148.03125 319.675781 C 146.652344 320.394531 145.792969 321.808594 145.792969 323.355469 C 145.792969 324.902344 146.652344 326.320312 148.03125 327.035156 L 265.441406 388.089844 C 266.636719 388.714844 268.054688 388.714844 269.25 388.089844 L 386.667969 327.035156 C 388.039062 326.320312 388.898438 324.902344 388.898438 323.355469 C 388.898438 321.808594 388.039062 320.394531 386.667969 319.675781 Z M 267.347656 266.964844 L 375.777344 323.355469 C 375.777344 323.355469 267.347656 379.746094 267.347656 379.746094 C 267.347656 379.746094 158.914062 323.355469 158.914062 323.355469 Z M 267.347656 266.964844 "
     fill-opacity="1"
     fill-rule="evenodd"
     id="path13"
     style="fill:#ffffff;fill-opacity:1" />
  <path
     fill="#000000"
     d="M 619.585938 321.277344 L 739.066406 384.410156 L 619.585938 447.539062 L 500.105469 384.410156 Z M 619.585938 321.277344 "
     fill-opacity="1"
     fill-rule="evenodd"
     id="path14"
     style="fill:#ffffff;fill-opacity:1" />
  <g
     clip-path="url(#f4214c8192)"
     id="g15"
     style="fill:#ffffff;fill-opacity:1">
    <path
       fill="#000000"
       d="M 570.859375 390.375 C 570.828125 397.808594 575.714844 405.246094 585.539062 410.914062 C 605.113281 422.222656 636.851562 422.222656 656.425781 410.917969 C 666.21875 405.265625 671.109375 397.855469 671.109375 390.453125 L 671.109375 381.765625 L 570.859375 381.765625 L 570.859375 390.375 "
       fill-opacity="1"
       fill-rule="nonzero"
       id="path15"
       style="fill:#ffffff;fill-opacity:1" />
  </g>
  <path
     fill="#000000"
     d="M 656.425781 359.898438 C 636.851562 348.59375 605.109375 348.59375 585.535156 359.898438 C 565.960938 371.199219 565.960938 389.523438 585.535156 400.828125 C 605.113281 412.128906 636.851562 412.128906 656.425781 400.828125 C 676.003906 389.523438 676 371.199219 656.425781 359.898438 "
     fill-opacity="1"
     fill-rule="nonzero"
     id="path16"
     style="fill:#ffffff;fill-opacity:1" />
  <path
     fill="#ffffff"
     d="M 630.292969 365.742188 C 629.054688 363.320312 623.789062 362.550781 620.703125 364.335938 L 593.410156 380.089844 C 590.324219 381.871094 591.664062 384.910156 595.847656 385.625 L 634.613281 392.25 C 638.992188 393 643.0625 390.648438 641.765625 388.121094 L 630.292969 365.742188 "
     fill-opacity="1"
     fill-rule="nonzero"
     id="path17"
     inkscape:export-filename="logo.png"
     inkscape:export-xdpi="25.860001"
     inkscape:export-ydpi="25.860001"
     style="fill:#000000;fill-opacity:1" />
</svg>
